<?xml version="1.0" encoding="utf-8"?>
<!-- Generator: Adobe Illustrator 24.3.0, SVG Export Plug-In . SVG Version: 6.00 Build 0)  -->
<svg version="1.1" id="Layer_1" xmlns="http://www.w3.org/2000/svg" xmlns:xlink="http://www.w3.org/1999/xlink" x="0px" y="0px"
	 viewBox="0 0 155.2 166.4" style="enable-background:new 0 0 155.2 166.4;" xml:space="preserve">
<style type="text/css">
	.st0{fill:#38B580;}
	.st1{fill:#FFFFFF;}
</style>
<g id="Layer_1_1_">
	<path class="st0" d="M47.6,42.9l-7.6-1c1.6-1.1,2.5-3.1,2.3-5.2l-1.8-13.8c-1-7.3-6.8-13.1-14.1-14.1L20.2,8c1.1-0.8,2.4-1.2,3.9-1
		l13.8,1.8c7.3,1,13.1,6.8,14.1,14.1l1.8,13.8C54.2,40.3,51.2,43.3,47.6,42.9z"/>
	<path class="st0" d="M104.9,34.1L95,46.4c-5.2,6.5-14.2,8.7-21.8,5.3l-14.4-6.3c-1.6-0.8-2.7-2.1-3.3-3.6l4.6,2
		c7.6,3.3,16.6,1.1,21.8-5.3l9.9-12.3c1.4-1.8,1.7-4.1,0.9-6.1l9.8,4.3C106.3,26.2,107.4,30.9,104.9,34.1z"/>
	<path class="st1" d="M10.7,12.7l2,15.2c1.4,10.3,9.6,18.5,19.9,19.9l13.5,1.8c-3.4,12.1-1.4,23.2,0.7,30c2.8-0.1,5.9-0.5,8.7-0.4
		c0.6,0,1.2-0.1,1.9-0.1c-1.9-5.2-5-17-0.7-29.3c0.4,0.2,0.8,0.5,1.2,0.7c0,0,0.1,0,0.1,0.1l14.1,6.2c3,1.3,6.1,1.9,9.3,1.9
		c6.8,0,13.5-3,18-8.6l9.6-11.9l0.1-0.1c2.1-2.7,2.8-6.2,2-9.6s-3.1-6.1-6.2-7.6c0,0-0.1,0-0.1-0.1l-14.1-6.2
		c-9.5-4.2-20.8-1.4-27.3,6.7L59,26.9L58.4,22C57,11.7,48.8,3.5,38.5,2.1l-15.2-2h-0.1c-3.4-0.4-6.8,0.8-9.2,3.2s-3.6,5.8-3.2,9.2
		C10.7,12.6,10.7,12.6,10.7,12.7z M61.6,39.6l9.6-11.9c3.7-4.5,9.9-6.1,15.3-3.7l14,6.1c0.4,0.2,0.5,0.5,0.6,0.7s0.1,0.6-0.2,0.9
		l-9.6,11.9c-3.7,4.5-9.9,6.1-15.3,3.7l-14-6.1c-0.4-0.2-0.5-0.5-0.6-0.7C61.4,40.3,61.4,40,61.6,39.6z M20.9,10.5
		c0.2-0.2,0.4-0.3,0.9-0.3l15.1,2C42.7,13,47.2,17.5,48,23.3l2,15.1c0,0.4-0.1,0.7-0.3,0.9s-0.4,0.3-0.9,0.3l-15.1-2
		c-5.8-0.8-10.3-5.3-11.1-11.1l-2-15.1C20.6,11,20.8,10.7,20.9,10.5z"/>
	<path class="st1" d="M144.5,72.1L98.3,57.8L71,83.1l-35.5-11L0,105l10.7,47.2l46.2,14.3l27.3-25.3l35.5,11l35.5-32.9L144.5,72.1z
		 M52,144.6l-24.9-7.7l-5.8-25.4l19.1-17.7l24.9,7.7l2.9,12.7l2.9,12.7L52,144.6z M114.8,130.3l-24.9-7.7l-5.8-25.4l19.1-17.7
		l24.9,7.7l5.8,25.4L114.8,130.3z"/>
</g>
<g id="Layer_2_1_">
</g>
</svg>
